<mxfile host="65bd71144e">
    <diagram id="t8QoFsj8MZgXzhcuyan1" name="Page-1">
        <mxGraphModel dx="1450" dy="1273" grid="1" gridSize="10" guides="1" tooltips="1" connect="1" arrows="1" fold="1" page="1" pageScale="1" pageWidth="2339" pageHeight="3300" math="0" shadow="0">
            <root>
                <mxCell id="0"/>
                <mxCell id="1" parent="0"/>
                <mxCell id="5" value="D" style="rounded=1;html=1;fontFamily=Alegreya;fontSource=https%3A%2F%2Ffonts.googleapis.com%2Fcss%3Ffamily%3DAlegreya;whiteSpace=wrap;" parent="1" vertex="1">
                    <mxGeometry x="420" y="290" width="40" height="30" as="geometry"/>
                </mxCell>
                <mxCell id="7" value="A" style="rounded=1;html=1;fontFamily=Alegreya;fontSource=https%3A%2F%2Ffonts.googleapis.com%2Fcss%3Ffamily%3DAlegreya;whiteSpace=wrap;" parent="1" vertex="1">
                    <mxGeometry x="380" y="170" width="40" height="30" as="geometry"/>
                </mxCell>
                <mxCell id="8" value="E" style="rounded=1;html=1;fontFamily=Alegreya;fontSource=https%3A%2F%2Ffonts.googleapis.com%2Fcss%3Ffamily%3DAlegreya;whiteSpace=wrap;" parent="1" vertex="1">
                    <mxGeometry x="460" y="230" width="40" height="30" as="geometry"/>
                </mxCell>
                <mxCell id="31" value="B" style="rounded=1;html=1;fontFamily=Alegreya;fontSource=https%3A%2F%2Ffonts.googleapis.com%2Fcss%3Ffamily%3DAlegreya;whiteSpace=wrap;" parent="1" vertex="1">
                    <mxGeometry x="310" y="230" width="40" height="30" as="geometry"/>
                </mxCell>
                <mxCell id="32" value="C" style="rounded=1;html=1;fontFamily=Alegreya;fontSource=https%3A%2F%2Ffonts.googleapis.com%2Fcss%3Ffamily%3DAlegreya;whiteSpace=wrap;" parent="1" vertex="1">
                    <mxGeometry x="340" y="290" width="40" height="30" as="geometry"/>
                </mxCell>
                <mxCell id="42" value="D" style="rounded=1;html=1;fontFamily=Alegreya;fontSource=https%3A%2F%2Ffonts.googleapis.com%2Fcss%3Ffamily%3DAlegreya;whiteSpace=wrap;" vertex="1" parent="1">
                    <mxGeometry x="970" y="290" width="40" height="30" as="geometry"/>
                </mxCell>
                <mxCell id="43" value="A" style="rounded=1;html=1;fontFamily=Alegreya;fontSource=https%3A%2F%2Ffonts.googleapis.com%2Fcss%3Ffamily%3DAlegreya;whiteSpace=wrap;" vertex="1" parent="1">
                    <mxGeometry x="930" y="170" width="40" height="30" as="geometry"/>
                </mxCell>
                <mxCell id="44" value="E" style="rounded=1;html=1;fontFamily=Alegreya;fontSource=https%3A%2F%2Ffonts.googleapis.com%2Fcss%3Ffamily%3DAlegreya;whiteSpace=wrap;" vertex="1" parent="1">
                    <mxGeometry x="1010" y="230" width="40" height="30" as="geometry"/>
                </mxCell>
                <mxCell id="45" value="B" style="rounded=1;html=1;fontFamily=Alegreya;fontSource=https%3A%2F%2Ffonts.googleapis.com%2Fcss%3Ffamily%3DAlegreya;whiteSpace=wrap;" vertex="1" parent="1">
                    <mxGeometry x="860" y="230" width="40" height="30" as="geometry"/>
                </mxCell>
                <mxCell id="46" value="C" style="rounded=1;html=1;fontFamily=Alegreya;fontSource=https%3A%2F%2Ffonts.googleapis.com%2Fcss%3Ffamily%3DAlegreya;whiteSpace=wrap;" vertex="1" parent="1">
                    <mxGeometry x="890" y="290" width="40" height="30" as="geometry"/>
                </mxCell>
                <mxCell id="47" value="D" style="rounded=1;html=1;fontFamily=Alegreya;fontSource=https%3A%2F%2Ffonts.googleapis.com%2Fcss%3Ffamily%3DAlegreya;whiteSpace=wrap;" vertex="1" parent="1">
                    <mxGeometry x="490" y="680" width="40" height="30" as="geometry"/>
                </mxCell>
                <mxCell id="48" value="A" style="rounded=1;html=1;fontFamily=Alegreya;fontSource=https%3A%2F%2Ffonts.googleapis.com%2Fcss%3Ffamily%3DAlegreya;whiteSpace=wrap;" vertex="1" parent="1">
                    <mxGeometry x="450" y="560" width="40" height="30" as="geometry"/>
                </mxCell>
                <mxCell id="49" value="E" style="rounded=1;html=1;fontFamily=Alegreya;fontSource=https%3A%2F%2Ffonts.googleapis.com%2Fcss%3Ffamily%3DAlegreya;whiteSpace=wrap;" vertex="1" parent="1">
                    <mxGeometry x="530" y="620" width="40" height="30" as="geometry"/>
                </mxCell>
                <mxCell id="50" value="B" style="rounded=1;html=1;fontFamily=Alegreya;fontSource=https%3A%2F%2Ffonts.googleapis.com%2Fcss%3Ffamily%3DAlegreya;whiteSpace=wrap;" vertex="1" parent="1">
                    <mxGeometry x="380" y="620" width="40" height="30" as="geometry"/>
                </mxCell>
                <mxCell id="51" value="C" style="rounded=1;html=1;fontFamily=Alegreya;fontSource=https%3A%2F%2Ffonts.googleapis.com%2Fcss%3Ffamily%3DAlegreya;whiteSpace=wrap;" vertex="1" parent="1">
                    <mxGeometry x="410" y="680" width="40" height="30" as="geometry"/>
                </mxCell>
                <mxCell id="52" value="D" style="rounded=1;html=1;fontFamily=Alegreya;fontSource=https%3A%2F%2Ffonts.googleapis.com%2Fcss%3Ffamily%3DAlegreya;whiteSpace=wrap;" vertex="1" parent="1">
                    <mxGeometry x="1070" y="690" width="40" height="30" as="geometry"/>
                </mxCell>
                <mxCell id="53" value="A" style="rounded=1;html=1;fontFamily=Alegreya;fontSource=https%3A%2F%2Ffonts.googleapis.com%2Fcss%3Ffamily%3DAlegreya;whiteSpace=wrap;" vertex="1" parent="1">
                    <mxGeometry x="1030" y="570" width="40" height="30" as="geometry"/>
                </mxCell>
                <mxCell id="54" value="E" style="rounded=1;html=1;fontFamily=Alegreya;fontSource=https%3A%2F%2Ffonts.googleapis.com%2Fcss%3Ffamily%3DAlegreya;whiteSpace=wrap;" vertex="1" parent="1">
                    <mxGeometry x="1110" y="630" width="40" height="30" as="geometry"/>
                </mxCell>
                <mxCell id="55" value="B" style="rounded=1;html=1;fontFamily=Alegreya;fontSource=https%3A%2F%2Ffonts.googleapis.com%2Fcss%3Ffamily%3DAlegreya;whiteSpace=wrap;" vertex="1" parent="1">
                    <mxGeometry x="960" y="630" width="40" height="30" as="geometry"/>
                </mxCell>
                <mxCell id="56" value="C" style="rounded=1;html=1;fontFamily=Alegreya;fontSource=https%3A%2F%2Ffonts.googleapis.com%2Fcss%3Ffamily%3DAlegreya;whiteSpace=wrap;" vertex="1" parent="1">
                    <mxGeometry x="990" y="690" width="40" height="30" as="geometry"/>
                </mxCell>
                <mxCell id="58" value="D" style="rounded=1;html=1;fontFamily=Alegreya;fontSource=https%3A%2F%2Ffonts.googleapis.com%2Fcss%3Ffamily%3DAlegreya;whiteSpace=wrap;" vertex="1" parent="1">
                    <mxGeometry x="470" y="1060" width="40" height="30" as="geometry"/>
                </mxCell>
                <mxCell id="59" value="A" style="rounded=1;html=1;fontFamily=Alegreya;fontSource=https%3A%2F%2Ffonts.googleapis.com%2Fcss%3Ffamily%3DAlegreya;whiteSpace=wrap;" vertex="1" parent="1">
                    <mxGeometry x="430" y="940" width="40" height="30" as="geometry"/>
                </mxCell>
                <mxCell id="60" value="E" style="rounded=1;html=1;fontFamily=Alegreya;fontSource=https%3A%2F%2Ffonts.googleapis.com%2Fcss%3Ffamily%3DAlegreya;whiteSpace=wrap;" vertex="1" parent="1">
                    <mxGeometry x="510" y="1000" width="40" height="30" as="geometry"/>
                </mxCell>
                <mxCell id="61" value="B" style="rounded=1;html=1;fontFamily=Alegreya;fontSource=https%3A%2F%2Ffonts.googleapis.com%2Fcss%3Ffamily%3DAlegreya;whiteSpace=wrap;" vertex="1" parent="1">
                    <mxGeometry x="360" y="1000" width="40" height="30" as="geometry"/>
                </mxCell>
                <mxCell id="62" value="C" style="rounded=1;html=1;fontFamily=Alegreya;fontSource=https%3A%2F%2Ffonts.googleapis.com%2Fcss%3Ffamily%3DAlegreya;whiteSpace=wrap;" vertex="1" parent="1">
                    <mxGeometry x="390" y="1060" width="40" height="30" as="geometry"/>
                </mxCell>
            </root>
        </mxGraphModel>
    </diagram>
</mxfile>
